<?xml version="1.0" encoding="utf-8"?>
<svg viewBox="0 0 100 100" x="0px" y="0px" xmlns="http://www.w3.org/2000/svg">
  <g style="" transform="matrix(1.647555, 0, 0, 1.647555, -2.591396, -5.180442)">
    <path d="M31,16a1,1,0,0,0,1,1,14.909,14.909,0,0,1,13.493,8.438,1,1,0,0,0,1.8-.876A16.9,16.9,0,0,0,32,15,1,1,0,0,0,31,16Z"/>
    <path d="M17.64,24.865a.987.987,0,0,0,.5.135,1,1,0,0,0,.866-.5,15,15,0,0,1,8.306-6.754,1,1,0,1,0-.624-1.9A17,17,0,0,0,17.275,23.5,1,1,0,0,0,17.64,24.865Z"/>
    <path d="M42.893,42.312A14.864,14.864,0,0,1,32,47a15.018,15.018,0,0,1-13.125-7.733,1,1,0,0,0-1.75.97A17.021,17.021,0,0,0,32,49a16.849,16.849,0,0,0,12.345-5.312,1,1,0,0,0-1.452-1.376Z"/>
    <path d="M45.229,42a1,1,0,0,0,.828-.437,16.994,16.994,0,0,0,1.707-3.188,1,1,0,1,0-1.854-.75A14.969,14.969,0,0,1,44.4,40.437,1,1,0,0,0,45.229,42Z"/>
    <path d="M59.85,31.822h0L47.085,29.694a9.23,9.23,0,0,1-6.057-3.96,10.975,10.975,0,0,0-18.056,0,9.23,9.23,0,0,1-6.058,3.96L4.15,31.822a.181.181,0,0,0,0,.356l12.765,2.128a9.23,9.23,0,0,1,6.057,3.96,10.975,10.975,0,0,0,18.056,0,9.23,9.23,0,0,1,6.058-3.96L59.85,32.178a.181.181,0,0,0,0-.356ZM32,39a7,7,0,1,1,7-7A7.008,7.008,0,0,1,32,39Z"/>
    <circle cx="32" cy="32" r="5"/>
  </g>
</svg>