<?xml version="1.0" encoding="utf-8"?>
<svg viewBox="0 0 100 100" x="0px" y="0px" xmlns="http://www.w3.org/2000/svg">
  <g style="" transform="matrix(3.867817, 0, 0, 3.867817, -143.222626, -143.471237)">
    <g data-name="Black hole">
      <path d="M42.13,43.46,56.54,57.87A10.22,10.22,0,0,1,42.13,43.46Z"/>
      <path d="M57.65,56.76,43.24,42.35A10.22,10.22,0,0,1,57.65,56.76Z"/>
      <path d="M59.12,40.88a12.92,12.92,0,0,0-15.71-2,.8.8,0,0,0-.15,1.24h0a.79.79,0,0,0,1,.11A11.33,11.33,0,0,1,59.74,55.78a.79.79,0,0,0,.11,1h0a.8.8,0,0,0,1.24-.15A12.92,12.92,0,0,0,59.12,40.88ZM56.46,60a.8.8,0,0,0-1-.13,11.32,11.32,0,0,1-15.4-15.4.8.8,0,0,0-.13-1h0a.79.79,0,0,0-1.24.17A12.9,12.9,0,0,0,56.29,61.26.79.79,0,0,0,56.46,60Z"/>
      <path d="M41,41.72a.49.49,0,0,1-.35-.15L39,39.9a.5.5,0,0,1,.71-.71l1.67,1.67a.51.51,0,0,1,0,.71A.51.51,0,0,1,41,41.72Z"/>
      <path d="M37.55,38.27a.48.48,0,0,1-.36-.15.48.48,0,0,1,0-.7.42.42,0,0,1,.16-.11.51.51,0,0,1,.55.11.5.5,0,0,1,.14.35A.63.63,0,0,1,38,38a.46.46,0,0,1-.11.16A.47.47,0,0,1,37.55,38.27Z"/>
      <path d="M60.34,61.06a.46.46,0,0,1-.35-.14l-1.67-1.67a.5.5,0,0,1,0-.71.51.51,0,0,1,.71,0l1.66,1.67a.5.5,0,0,1,0,.71A.46.46,0,0,1,60.34,61.06Z"/>
      <path d="M62.12,62.84a.55.55,0,0,1-.35-.14.51.51,0,0,1-.15-.36.47.47,0,0,1,.15-.35.46.46,0,0,1,.16-.11.5.5,0,0,1,.38,0,.46.46,0,0,1,.16.11.47.47,0,0,1,.15.35.51.51,0,0,1-.15.36.55.55,0,0,1-.35.14Z"/>
    </g>
  </g>
</svg>